<?xml version="1.0" encoding="UTF-8"?>
<svg xmlns="http://www.w3.org/2000/svg" xmlns:xlink="http://www.w3.org/1999/xlink" width="256px" height="256px"
    viewBox="0 0 256 256" version="1.1">

    <defs>
        <radialGradient id="backgroundGradient" cx="0%" cy="0%" r="141.42%">
            <stop offset="0%" style="stop-color:#6A75AF;stop-opacity:1" />
            <stop offset="100%" style="stop-color:#2B2F40;stop-opacity:1" />
        </radialGradient>
    </defs>


    <rect width="256" height="256" fill="url(#backgroundGradient)" />

    <g id="surface1">
        <path style=" stroke:none;fill-rule:nonzero;fill:rgb(89.019608%,89.019608%,89.019608%);fill-opacity:1;"
            d="M 74.667969 192 C 56.890625 192 41.777344 185.777344 29.332031 173.332031 C 16.890625 160.890625 10.667969 145.777344 10.667969 128 C 10.667969 110.222656 16.890625 95.109375 29.332031 82.667969 C 41.777344 70.222656 56.890625 64 74.667969 64 L 181.332031 64 C 199.109375 64 214.222656 70.222656 226.667969 82.667969 C 239.109375 95.109375 245.332031 110.222656 245.332031 128 C 245.332031 145.777344 239.109375 160.890625 226.667969 173.332031 C 214.222656 185.777344 199.109375 192 181.332031 192 Z M 74.667969 170.667969 L 181.332031 170.667969 C 193.066406 170.667969 203.109375 166.488281 211.464844 158.132812 C 219.820312 149.777344 224 139.734375 224 128 C 224 116.265625 219.820312 106.222656 211.464844 97.867188 C 203.109375 89.511719 193.066406 85.332031 181.332031 85.332031 L 74.667969 85.332031 C 62.933594 85.332031 52.890625 89.511719 44.535156 97.867188 C 36.179688 106.222656 32 116.265625 32 128 C 32 139.734375 36.179688 149.777344 44.535156 158.132812 C 52.890625 166.488281 62.933594 170.667969 74.667969 170.667969 Z M 181.332031 160 C 190.222656 160 197.777344 156.890625 204 150.667969 C 210.222656 144.445312 213.332031 136.890625 213.332031 128 C 213.332031 119.109375 210.222656 111.554688 204 105.332031 C 197.777344 99.109375 190.222656 96 181.332031 96 C 172.445312 96 164.890625 99.109375 158.667969 105.332031 C 152.445312 111.554688 149.332031 119.109375 149.332031 128 C 149.332031 136.890625 152.445312 144.445312 158.667969 150.667969 C 164.890625 156.890625 172.445312 160 181.332031 160 Z M 128 128 Z M 128 128 " />
    </g>
</svg>